<svg width="32" height="32" viewBox="0 0 32 32" fill="none" xmlns="http://www.w3.org/2000/svg">
<path d="M29.1999 7.8002C28.1989 8.2552 27.1199 8.5542 26.0019 8.6972C27.1459 8.0082 28.0299 6.9162 28.4459 5.6032C27.3669 6.2532 26.1709 6.7082 24.9099 6.9682C23.8829 5.8502 22.4399 5.2002 20.8019 5.2002C17.7469 5.2002 15.2509 7.6962 15.2509 10.7772C15.2509 11.2192 15.3029 11.6482 15.3939 12.0512C10.7659 11.8172 6.64491 9.5942 3.90191 6.2272C3.42091 7.0462 3.14791 8.0082 3.14791 9.0222C3.14791 10.9592 4.12291 12.6752 5.63091 13.6502C4.70791 13.6502 3.84991 13.3902 3.09591 13.0002V13.0392C3.09591 15.7432 5.01991 18.0052 7.56791 18.5122C6.75 18.737 5.89095 18.7682 5.05891 18.6032C5.412 19.7114 6.1035 20.6811 7.03623 21.376C7.96895 22.0709 9.09599 22.456 10.2589 22.4772C8.28768 24.0379 5.84412 24.8814 3.32991 24.8692C2.88791 24.8692 2.44591 24.8432 2.00391 24.7912C4.47391 26.3772 7.41191 27.3002 10.5579 27.3002C20.8019 27.3002 26.4309 18.7982 26.4309 11.4272C26.4309 11.1802 26.4309 10.9462 26.4179 10.6992C27.5099 9.9192 28.4459 8.9312 29.1999 7.8002Z" fill="#24A9E1"/>
</svg>
