<svg width="32" height="32" viewBox="0 0 32 32" fill="none" xmlns="http://www.w3.org/2000/svg">
<path d="M15.6035 2.59961C22.7834 2.59961 28.6035 8.41971 28.6035 15.5996C28.6035 22.7795 22.7834 28.5996 15.6035 28.5996C13.3061 28.6036 11.0491 27.9956 9.06454 26.8381L2.60874 28.5996L4.36634 22.1412C3.20798 20.156 2.59951 17.898 2.60354 15.5996C2.60354 8.41971 8.42364 2.59961 15.6035 2.59961ZM11.1731 9.48961L10.9131 9.50001C10.745 9.51159 10.5808 9.55574 10.4295 9.63001C10.2886 9.70997 10.1599 9.8098 10.0473 9.92641C9.89134 10.0733 9.80294 10.2007 9.70804 10.3242C9.22719 10.9494 8.9683 11.7169 8.97224 12.5056C8.97484 13.1426 9.14124 13.7627 9.40124 14.3425C9.93294 15.5151 10.8078 16.7566 11.9622 17.9071C12.2404 18.184 12.5134 18.4622 12.8072 18.7209C14.2417 19.9837 15.951 20.8945 17.7992 21.3807L18.5376 21.4938C18.7781 21.5068 19.0186 21.4886 19.2604 21.4769C19.639 21.4569 20.0086 21.3545 20.3433 21.1766C20.5134 21.0887 20.6796 20.9932 20.8412 20.8906C20.8412 20.8906 20.8963 20.8533 21.0037 20.7736C21.1792 20.6436 21.2871 20.5513 21.4327 20.3992C21.5419 20.2865 21.6329 20.1557 21.7057 20.0066C21.8071 19.7947 21.9085 19.3904 21.9501 19.0537C21.9813 18.7963 21.9722 18.6559 21.9683 18.5688C21.9631 18.4297 21.8474 18.2854 21.7213 18.2243L20.9647 17.885C20.9647 17.885 19.8337 17.3923 19.1421 17.0777C19.0697 17.0462 18.9922 17.0281 18.9133 17.0244C18.8244 17.0151 18.7345 17.025 18.6497 17.0535C18.5649 17.082 18.4872 17.1284 18.4219 17.1895C18.4154 17.1869 18.3283 17.261 17.3884 18.3998C17.3345 18.4723 17.2602 18.5271 17.175 18.5572C17.0898 18.5873 16.9975 18.5913 16.91 18.5688C16.8253 18.5462 16.7423 18.5176 16.6617 18.483C16.5005 18.4154 16.4446 18.3894 16.3341 18.3426C15.5878 18.0175 14.8969 17.5775 14.2866 17.0387C14.1228 16.8957 13.9707 16.7397 13.8147 16.5889C13.3033 16.0991 12.8576 15.545 12.4887 14.9405L12.412 14.817C12.3578 14.7335 12.3133 14.6441 12.2794 14.5505C12.23 14.3594 12.3587 14.206 12.3587 14.206C12.3587 14.206 12.6746 13.8602 12.8215 13.673C12.9645 13.491 13.0854 13.3142 13.1634 13.1881C13.3168 12.9411 13.3649 12.6876 13.2843 12.4913C12.9203 11.6021 12.5442 10.7177 12.1559 9.83801C12.0792 9.66381 11.8517 9.53901 11.645 9.51431C11.5748 9.50564 11.5046 9.49871 11.4344 9.49351C11.2599 9.4835 11.0849 9.48523 10.9105 9.49871L11.1731 9.48961Z" fill="#309E40"/>
</svg>
