<?xml version="1.0" encoding="UTF-8"?>
<svg id="Layer_2" data-name="Layer 2" xmlns="http://www.w3.org/2000/svg" xmlns:xlink="http://www.w3.org/1999/xlink" viewBox="0 0 150 75">
  <defs>
    <style>
      .cls-1 {
        fill: #fff;
      }

      .cls-2 {
        fill: #93c83f;
      }

      .cls-3 {
        clip-path: url(#clippath);
      }

      .cls-4 {
        fill: none;
      }
    </style>
    <clipPath id="clippath">
      <rect class="cls-4" width="150" height="75"/>
    </clipPath>
  </defs>
  <g id="Layer_2-2" data-name="Layer 2">
    <g class="cls-3">
      <g>
        <g>
          <path class="cls-2" d="M37.83,19.24h-6.04v-2.65h15.01v2.65h-6.01v15.72h-2.97v-15.72Z"/>
          <path class="cls-2" d="M69.43,34.96h-13.57V16.59h13.49v2.86h-10.55v4.96h10.13v2.73h-10.13v4.93h10.63v2.89Z"/>
          <path class="cls-2" d="M95.36,34.96h-3.44l-5.59-6.35h-3.88v6.35h-2.94V16.56c.94,0,2.37,0,4.28,.01,1.91,0,3.33,.01,4.28,.01,2.03,0,3.62,.59,4.76,1.77,1.15,1.18,1.72,2.59,1.72,4.24,0,1.45-.41,2.71-1.22,3.77-.81,1.06-2.07,1.71-3.77,1.96l5.49,6.12,.31,.52Zm-12.91-15.7v6.67h5.59c1.15,0,2.03-.31,2.62-.94,.6-.63,.89-1.41,.89-2.34s-.3-1.7-.89-2.38c-.59-.67-1.46-1.01-2.6-1.01h-5.62Z"/>
          <path class="cls-2" d="M120.58,34.96h-3.44l-5.59-6.35h-3.88v6.35h-2.94V16.56c.94,0,2.37,0,4.28,.01,1.91,0,3.33,.01,4.28,.01,2.03,0,3.62,.59,4.76,1.77,1.15,1.18,1.72,2.59,1.72,4.24,0,1.45-.41,2.71-1.22,3.77-.81,1.06-2.07,1.71-3.77,1.96l5.49,6.12,.32,.52Zm-12.91-15.7v6.67h5.59c1.15,0,2.03-.31,2.62-.94,.59-.63,.89-1.41,.89-2.34s-.3-1.7-.89-2.38c-.6-.67-1.46-1.01-2.6-1.01h-5.62Z"/>
          <path class="cls-2" d="M142.67,31.1h-9.95l-1.73,3.86h-3.12l8.24-18.37h3.2l8.24,18.37h-3.12l-1.76-3.86Zm-4.96-11.42l-3.88,8.74h7.77l-3.88-8.74Z"/>
        </g>
        <g>
          <path class="cls-2" d="M5.49,40.32s5.89-.69,6.13,5.3h.59s.59-1.57-.93-4.51c0,0,3.34-4.66,8.24-3.97,0,0,2.65,7.9-7.7,9.72,0,0-6.67,.79-6.33-6.53Z"/>
          <path class="cls-1" d="M20.57,60.93l4.42-3.24,3.93,.92-3.37-37.52-.86,.07,3.26,36.34-3.15-.75-4.74,3.48,.51,.69Zm-.28-.49l.04-.43-18.85-1.69L5.61,21.58H24.32l-4.46,38.81,.43,.05,.04-.43-.04,.43,.43,.05,4.57-39.77H4.84L.52,59.1l20.16,1.81,.04-.42-.43-.05ZM5.07,21.08v.43H25.39v-5.34H5.25l-.13,.13s-.22,.24-.39,.67c-.18,.43-.34,1.08-.34,2,0,.61,.08,1.34,.26,2.2l.08,.34h.34v-.43l.42-.09c-.17-.81-.24-1.47-.24-2.01,0-.81,.14-1.35,.27-1.67,.07-.16,.13-.27,.17-.33,.02-.03,.04-.06,.05-.07h.01s-.14-.13-.14-.13l.14,.13h0s-.14-.13-.14-.13l.14,.13-.32-.3v.43H24.53v3.61H5.07v.43l.42-.09-.42,.09Zm19.56,.93l.46-.03s.2-.02,.39-.12c.29-.15,.65-.48,.92-1.13,.27-.64,.46-1.6,.46-3.06,0-.26,0-.53-.02-.83l-.43,.02h.43v-.69h-2.23c0,1.04,.43-.18,.43,.86h1.36v-.43h-.43v.26h0v.02c.01,.28,.02,.54,.02,.79,0,1.84-.34,2.73-.61,3.11-.14,.2-.26,.28-.32,.31-.03,.02-.05,.02-.06,.03h0l.04,.18v-.18s-.04,0-.04,0l.04,.18v-.18s.01,.43,.01,.43h.43c0-.53-.44-6.8-.44-4.51,0-2.42-.42,4.55-.42,4.98Z"/>
        </g>
        <g>
          <path class="cls-2" d="M39.41,53.38c.57,0,1.04,.14,1.4,.41,.36,.27,.54,.68,.54,1.22s-.26,.91-.79,1.13c.31,.09,.55,.27,.72,.53,.17,.26,.25,.52,.25,.78,0,.4-.1,.72-.3,.97-.2,.25-.46,.42-.76,.52-.3,.09-.65,.14-1.05,.14h-2.61v-5.69h2.61Zm-1.71,2.36h1.71c.34,0,.59-.06,.76-.19,.17-.12,.26-.3,.26-.53s-.09-.41-.28-.57c-.18-.17-.44-.25-.76-.25h-1.71v1.54Zm0,2.49h1.71c.31,0,.59-.06,.84-.18,.24-.12,.37-.32,.37-.61s-.12-.5-.37-.65c-.25-.15-.52-.23-.82-.23h-1.71v1.67Z"/>
          <path class="cls-2" d="M44.58,53.43c.17-.09,.35-.09,.52,0,.17,.09,.26,.24,.26,.45s-.09,.37-.26,.46c-.17,.09-.35,.09-.52,0-.17-.09-.26-.24-.26-.46s.09-.37,.26-.45Zm-.16,1.62v4.02h.84v-4.02h-.84Z"/>
          <path class="cls-2" d="M51.66,55.58c.39,.4,.58,.9,.58,1.49s-.19,1.1-.57,1.49c-.38,.39-.88,.59-1.51,.59s-1.12-.2-1.5-.59c-.38-.39-.57-.89-.57-1.49s.19-1.1,.57-1.5c.38-.4,.88-.59,1.49-.59s1.11,.2,1.5,.6Zm-2.39,.56c-.22,.25-.34,.57-.34,.93s.11,.68,.33,.93c.22,.25,.52,.37,.89,.37s.67-.12,.9-.37c.22-.25,.34-.56,.34-.93s-.12-.67-.35-.93c-.23-.26-.53-.39-.89-.39s-.67,.13-.89,.38Z"/>
          <path class="cls-2" d="M62.49,54.68l.61,.47-.48,.56c.33,.38,.49,.79,.49,1.24,0,.36-.09,.68-.27,.95-.18,.27-.44,.47-.8,.61,.7,.24,1.06,.67,1.06,1.31,0,.52-.21,.92-.64,1.2-.43,.29-.93,.43-1.51,.43-.66,0-1.18-.16-1.56-.48-.38-.32-.56-.75-.55-1.3h.84c-.01,.3,.11,.53,.36,.7,.25,.17,.56,.26,.91,.26,.34,0,.64-.07,.89-.21,.25-.14,.38-.34,.38-.61s-.12-.49-.35-.64c-.23-.15-.54-.23-.91-.23-.66,0-1.18-.18-1.58-.54-.4-.36-.59-.85-.59-1.46s.21-1.13,.64-1.48c.43-.35,.94-.53,1.53-.53,.45,0,.81,.09,1.08,.28l.44-.54Zm-2.46,1.36c-.26,.21-.39,.52-.39,.91s.13,.69,.38,.9c.25,.22,.57,.33,.95,.33s.68-.12,.93-.35c.25-.23,.37-.52,.37-.88,0-.38-.13-.68-.38-.9-.25-.22-.56-.33-.92-.33s-.68,.11-.94,.32Z"/>
          <path class="cls-2" d="M66.76,55.06l.06,.53c.23-.41,.63-.62,1.18-.62,.41,0,.74,.11,.99,.34l-.38,.73c-.2-.16-.44-.24-.71-.24-.31,0-.57,.1-.77,.28s-.31,.46-.31,.81v2.17h-.84v-4.01h.78Z"/>
          <path class="cls-2" d="M72.13,57.38c.04,.3,.17,.55,.41,.73,.24,.18,.54,.28,.9,.28,.22,0,.43-.04,.65-.12s.39-.18,.51-.31l.54,.53c-.2,.22-.46,.38-.77,.5-.31,.12-.63,.18-.96,.18-.66,0-1.18-.19-1.57-.58-.39-.38-.59-.9-.59-1.54s.2-1.11,.59-1.5c.39-.39,.9-.59,1.52-.59,.67,0,1.19,.21,1.57,.62,.37,.41,.52,1.01,.45,1.8h-3.25Zm2.45-.71c-.02-.31-.14-.55-.35-.72-.21-.17-.49-.25-.83-.25-.31,0-.58,.08-.81,.25-.22,.17-.37,.41-.43,.72h2.43Z"/>
          <path class="cls-2" d="M78.81,57.38c.04,.3,.17,.55,.41,.73,.24,.18,.54,.28,.9,.28,.22,0,.43-.04,.65-.12,.22-.08,.39-.18,.51-.31l.54,.53c-.2,.22-.46,.38-.77,.5-.31,.12-.63,.18-.95,.18-.66,0-1.18-.19-1.57-.58-.39-.38-.59-.9-.59-1.54s.2-1.11,.59-1.5c.39-.39,.9-.59,1.52-.59,.67,0,1.19,.21,1.57,.62,.37,.41,.52,1.01,.45,1.8h-3.25Zm2.45-.71c-.02-.31-.14-.55-.35-.72-.21-.17-.49-.25-.83-.25-.31,0-.58,.08-.81,.25-.22,.17-.37,.41-.43,.72h2.43Z"/>
          <path class="cls-2" d="M87.9,59.07v-2.15c0-.35-.09-.63-.28-.84-.19-.21-.46-.31-.8-.31s-.59,.12-.8,.35c-.21,.23-.32,.52-.32,.85v2.1h-.84v-4.01h.76l.05,.58c.38-.43,.83-.64,1.35-.64s.92,.17,1.24,.51c.32,.34,.48,.81,.48,1.41v2.15h-.85Z"/>
          <path class="cls-2" d="M95.91,53.43c.17-.09,.35-.09,.52,0,.17,.09,.26,.24,.26,.45s-.09,.37-.26,.46c-.17,.09-.35,.09-.52,0-.17-.09-.26-.24-.26-.46s.09-.37,.26-.45Zm-.16,1.62v4.02h.84v-4.02h-.84Z"/>
          <path class="cls-2" d="M102.71,59.07v-2.15c0-.35-.09-.63-.28-.84-.19-.21-.46-.31-.8-.31s-.59,.12-.8,.35c-.21,.23-.32,.52-.32,.85v2.1h-.84v-4.01h.76l.05,.58c.38-.43,.83-.64,1.35-.64s.92,.17,1.24,.51c.32,.34,.48,.81,.48,1.41v2.15h-.85Z"/>
          <path class="cls-2" d="M106.74,53.43c.17-.09,.35-.09,.52,0,.17,.09,.26,.24,.26,.45s-.09,.37-.26,.46c-.17,.09-.35,.09-.52,0-.17-.09-.26-.24-.26-.46s.09-.37,.26-.45Zm-.16,1.62v4.02h.84v-4.02h-.84Z"/>
          <path class="cls-2" d="M111.79,53.91v1.16h1.17v.72h-1.18v1.91c0,.44,.19,.66,.58,.66,.16,0,.33-.05,.51-.14l.24,.72c-.27,.12-.54,.18-.8,.18-.44,.01-.78-.1-1.01-.35-.24-.24-.35-.6-.35-1.07v-1.91h-.77v-.72h.77v-1.07l.85-.09Z"/>
          <path class="cls-2" d="M115.92,53.43c.17-.09,.35-.09,.52,0,.17,.09,.26,.24,.26,.45s-.09,.37-.26,.46c-.17,.09-.35,.09-.52,0-.17-.09-.26-.24-.26-.46s.09-.37,.26-.45Zm-.16,1.62v4.02h.84v-4.02h-.84Z"/>
          <path class="cls-2" d="M122.9,55.06h.81v4.01h-.8l-.04-.65c-.12,.24-.32,.43-.58,.56-.26,.13-.53,.2-.8,.2-.6,0-1.09-.18-1.48-.55-.38-.37-.58-.89-.58-1.56s.2-1.16,.59-1.53c.39-.37,.89-.56,1.48-.56,.29,0,.56,.06,.8,.2,.25,.13,.44,.31,.56,.53l.02-.63Zm-2.25,1.04c-.25,.24-.37,.56-.37,.96s.12,.72,.37,.97c.25,.24,.56,.37,.93,.37,.24,0,.45-.05,.64-.15,.19-.1,.33-.22,.42-.38,.09-.16,.17-.33,.21-.52s.05-.38,0-.56c-.05-.19-.12-.36-.21-.52-.1-.16-.24-.28-.42-.38-.19-.1-.4-.15-.64-.15-.37,0-.68,.12-.93,.36Z"/>
          <path class="cls-2" d="M128.09,53.91v1.16h1.17v.72h-1.18v1.91c0,.44,.19,.66,.58,.66,.16,0,.33-.05,.51-.14l.24,.72c-.27,.12-.54,.18-.8,.18-.44,.01-.78-.1-1.01-.35-.24-.24-.35-.6-.35-1.07v-1.91h-.77v-.72h.77v-1.07l.85-.09Z"/>
          <path class="cls-2" d="M132.22,53.43c.17-.09,.35-.09,.52,0,.17,.09,.26,.24,.26,.45s-.09,.37-.26,.46c-.17,.09-.35,.09-.52,0-.17-.09-.26-.24-.26-.46s.09-.37,.26-.45Zm-.16,1.62v4.02h.84v-4.02h-.84Z"/>
          <path class="cls-2" d="M139.88,55.06l-1.7,4.03h-.92l-1.71-4.03h.93l.54,1.29,.71,1.86,.63-1.7,.6-1.45h.92Z"/>
          <path class="cls-2" d="M143.17,57.38c.04,.3,.17,.55,.41,.73,.24,.18,.54,.28,.9,.28,.22,0,.43-.04,.65-.12s.39-.18,.51-.31l.54,.53c-.2,.22-.46,.38-.77,.5-.31,.12-.63,.18-.96,.18-.66,0-1.18-.19-1.57-.58-.39-.38-.59-.9-.59-1.54s.2-1.11,.59-1.5c.39-.39,.9-.59,1.52-.59,.67,0,1.19,.21,1.57,.62,.37,.41,.52,1.01,.45,1.8h-3.25Zm2.45-.71c-.02-.31-.14-.55-.35-.72-.21-.17-.49-.25-.83-.25-.31,0-.58,.08-.81,.25-.22,.17-.37,.41-.43,.72h2.43Z"/>
        </g>
        <rect class="cls-1" x="33.02" y="50.34" width="115.99" height=".2"/>
        <g>
          <path class="cls-1" d="M41.16,39.81h-2.83v-1.24h7.05v1.24h-2.82v7.38h-1.39v-7.38Z"/>
          <path class="cls-1" d="M56.98,47.19h-6.37v-8.62h6.33v1.34h-4.95v2.33h4.75v1.28h-4.75v2.32h4.99v1.35Z"/>
          <path class="cls-1" d="M69.95,46.08c-.86,.85-1.94,1.28-3.24,1.28-.76,0-1.43-.12-2.02-.37-.59-.25-1.07-.58-1.43-1-.36-.42-.63-.89-.82-1.4-.18-.52-.28-1.07-.28-1.65s.09-1.14,.28-1.67c.19-.53,.46-1.01,.83-1.44,.36-.43,.84-.77,1.44-1.03,.6-.25,1.26-.38,2-.38,1.23,0,2.28,.44,3.15,1.31l-.92,.89c-.6-.59-1.34-.89-2.23-.89-1.03,0-1.81,.32-2.36,.95-.55,.63-.82,1.38-.81,2.25,0,.87,.28,1.61,.81,2.22,.53,.61,1.32,.92,2.36,.92,.41,0,.82-.08,1.23-.25,.41-.16,.76-.39,1.06-.69l.95,.95Z"/>
          <path class="cls-1" d="M81.23,47.19v-3.58h-4.56v3.58h-1.38v-8.62h1.38v3.76h4.56v-3.76h1.37v8.62h-1.37Z"/>
          <path class="cls-1" d="M99.67,38.57c.87,0,1.58,.2,2.12,.62,.54,.41,.81,1.03,.81,1.85s-.4,1.38-1.19,1.71c.48,.14,.84,.41,1.09,.81,.25,.4,.38,.79,.38,1.18,0,.6-.15,1.09-.46,1.47-.31,.38-.69,.64-1.15,.78-.46,.14-.99,.21-1.6,.21h-3.95v-8.62h3.95Zm-2.59,3.57h2.6c.51,0,.9-.09,1.16-.28,.26-.19,.39-.46,.39-.8s-.14-.62-.42-.87c-.28-.25-.66-.38-1.15-.38h-2.59v2.33Zm0,3.77h2.59c.48,0,.9-.09,1.27-.28,.37-.18,.55-.49,.55-.92s-.19-.76-.57-.99c-.38-.23-.79-.35-1.24-.35h-2.6v2.54Z"/>
          <path class="cls-1" d="M114.45,45.38h-4.67l-.81,1.81h-1.47l3.87-8.62h1.5l3.87,8.62h-1.47l-.83-1.81Zm-2.33-5.36l-1.82,4.1h3.65l-1.82-4.1Z"/>
          <path class="cls-1" d="M128.21,40.55c-.3-.3-.65-.52-1.08-.68-.42-.16-.84-.24-1.25-.24-.98,0-1.75,.32-2.33,.96-.57,.64-.86,1.43-.85,2.38,0,.87,.27,1.61,.8,2.2,.53,.6,1.33,.9,2.38,.9,.8,0,1.5-.25,2.11-.76v-1.75h-2.4v-1.23h3.68v3.54c-.91,1-2.04,1.5-3.39,1.5-.76,0-1.44-.12-2.04-.36-.6-.24-1.07-.57-1.42-.99-.35-.41-.62-.88-.8-1.39-.18-.51-.27-1.07-.27-1.66,0-1.31,.4-2.4,1.21-3.28,.8-.88,1.91-1.32,3.33-1.32,1.25,0,2.31,.44,3.19,1.31l-.86,.89Z"/>
          <path class="cls-1" d="M140.13,40.48c-.21-.3-.5-.53-.88-.7-.38-.17-.8-.26-1.25-.26-.59,0-1.07,.12-1.44,.35-.37,.23-.55,.55-.55,.95,0,.38,.18,.65,.54,.83,.36,.17,.88,.31,1.56,.41,.51,.07,.94,.16,1.31,.26,.36,.1,.72,.24,1.07,.44,.35,.19,.62,.46,.81,.79,.18,.33,.28,.73,.28,1.19,0,.62-.18,1.13-.54,1.54-.36,.41-.79,.7-1.31,.87-.51,.17-1.09,.25-1.73,.25-1.77,0-3-.65-3.71-1.96l1.03-.69c.56,.94,1.45,1.42,2.69,1.42,.38,0,.72-.04,1.03-.12,.31-.08,.58-.24,.81-.46,.23-.23,.34-.51,.34-.84,0-.44-.2-.76-.58-.97-.39-.21-.93-.36-1.62-.45-.39-.05-.73-.11-1.02-.17-.28-.07-.58-.16-.89-.28-.31-.12-.56-.27-.76-.44-.19-.17-.35-.4-.48-.67-.13-.28-.19-.59-.19-.94,0-.43,.1-.8,.3-1.13s.46-.59,.79-.78c.33-.19,.68-.33,1.06-.42,.38-.09,.77-.14,1.18-.14,1.54,0,2.61,.48,3.21,1.45l-1.05,.7Z"/>
        </g>
      </g>
    </g>
  </g>
</svg>